<?xml version="1.0" encoding="utf-8"?>
<!-- Generator: Adobe Illustrator 19.0.0, SVG Export Plug-In . SVG Version: 6.00 Build 0)  -->
<svg version="1.1" id="Layer_1" xmlns="http://www.w3.org/2000/svg" xmlns:xlink="http://www.w3.org/1999/xlink" x="0px" y="0px"
	 viewBox="-271 357 24 24" style="enable-background:new -271 357 24 24;" xml:space="preserve">
<style type="text/css">
	.st0{fill:#FFFFFF;}
	.st1{fill:#00695C;}
	.st2{fill:none;}
</style>
<circle class="st0" cx="-259" cy="369" r="8.4"/>
<path class="st1" d="M-259,359c-5.5,0-10,4.5-10,10s4.5,10,10,10c5.5,0,10-4.5,10-10S-253.5,359-259,359z M-259,377
	c-4.4,0-8-3.6-8-8c0-4.4,3.6-8,8-8c4.4,0,8,3.6,8,8C-251,373.4-254.6,377-259,377z M-254.8,364.8l-1.1,1.1l-1.1-1.1l-1.1,1.1
	l1.1,1.1l-1.1,1.1l1.1,1.1l1.1-1.1l1.1,1.1l1.1-1.1l-1.1-1.1l1.1-1.1L-254.8,364.8z M-263.2,369l1.1-1.1l1.1,1.1l1.1-1.1l-1.1-1.1
	l1.1-1.1l-1.1-1.1l-1.1,1.1l-1.1-1.1l-1.1,1.1l1.1,1.1l-1.1,1.1L-263.2,369z M-259,371c-2.3,0-4.3,1.5-5.1,3.5h10.2
	C-254.7,372.5-256.7,371-259,371z"/>
<path class="st2" d="M-271,357h24v24h-24V357z"/>
</svg>
